<svg width="134" height="30" viewBox="0 0 134 30" xmlns="http://www.w3.org/2000/svg">
    <title>YOOtheme</title>
    <path fill="#222" d="M41.75,1.29c-3.55,0-6.33,1.58-8.04,4c-1.71-2.42-4.49-4-8.04-4c-4.54,0-7.83,2.6-9.22,6.24V1.77h-5.19
        v11.51c0,2.19-0.81,3.48-3.04,3.48c-2.22,0-3.03-1.29-3.03-3.48V1.77H0v12.56c0,1.83,0.45,3.45,1.38,4.7
        c0.89,1.26,2.27,2.189,4.13,2.59v8.189h5.43V21.62c3.31-0.72,5.08-3.03,5.44-6.09c1.35,3.739,4.68,6.42,9.29,6.42
        c3.55,0,6.33-1.58,8.04-4c1.71,2.42,4.49,4,8.04,4c6.12,0,9.96-4.7,9.96-10.33S47.87,1.29,41.75,1.29z M25.67,16.76
        c-2.87,0-4.78-1.86-4.78-5.14c0-3.28,1.91-5.15,4.78-5.15c2.88,0,4.78,1.87,4.78,5.15C30.45,14.9,28.55,16.76,25.67,16.76z
         M41.75,16.76c-2.88,0-4.78-1.86-4.78-5.14c0-3.28,1.9-5.15,4.78-5.15c2.87,0,4.78,1.87,4.78,5.15
        C46.53,14.9,44.62,16.76,41.75,16.76z" />
    <path fill="#222" d="M52.647,6.16h2.605V1.464h3.455V6.16h3.121v2.576h-3.121v8.362c0,1.425,0.121,2.152,1.667,2.152
        c0.485,0,0.969,0,1.454-0.121v2.667c-0.757,0.061-1.484,0.181-2.242,0.181c-3.605,0-4.272-1.394-4.333-3.999V8.735h-2.605V6.16z" />
    <path fill="#222" d="M62.798,0.191h3.454V8.22h0.061c0.849-1.423,2.637-2.484,4.697-2.484c3.394,0,5.545,1.818,5.545,5.332
        v10.758H73.1v-9.849c-0.06-2.455-1.03-3.515-3.06-3.515c-2.303,0-3.788,1.818-3.788,4.122v9.242h-3.454V0.191z" />
    <path fill="#222" d="M81.372,14.887c0,2.455,1.334,4.636,4.212,4.636c1.999,0,3.213-0.879,3.819-2.605h3.271
        c-0.759,3.424-3.668,5.333-7.091,5.333c-4.909,0-7.667-3.424-7.667-8.241c0-4.456,2.91-8.273,7.576-8.273
        c4.94,0,7.97,4.454,7.393,9.15H81.372z M89.433,12.615c-0.122-2.182-1.607-4.152-3.939-4.152c-2.394,0-4.03,1.818-4.121,4.152
        H89.433z" />
    <path fill="#222" d="M94.009,6.16h3.271v2.183h0.091c1.03-1.545,2.332-2.606,4.817-2.606c1.909,0,3.697,0.818,4.393,2.606
        c1.152-1.606,2.638-2.606,4.911-2.606c3.301,0,5.241,1.454,5.241,5.272v10.818h-3.455v-9.151c0-2.485-0.151-4.212-2.848-4.212
        c-2.333,0-3.333,1.545-3.333,4.183v9.181h-3.455V11.766c0-2.151-0.666-3.303-2.756-3.303c-1.788,0-3.426,1.456-3.426,4.061v9.303
        h-3.452V6.16z" />
    <path fill="#222" d="M121.552,14.887c0,2.455,1.333,4.636,4.211,4.636c2.001,0,3.213-0.879,3.817-2.605h3.273
        c-0.758,3.424-3.667,5.333-7.091,5.333c-4.908,0-7.666-3.424-7.666-8.241c0-4.456,2.909-8.273,7.575-8.273
        c4.938,0,7.97,4.454,7.395,9.15H121.552z M129.611,12.615c-0.122-2.182-1.605-4.152-3.939-4.152c-2.393,0-4.03,1.818-4.12,4.152
        H129.611z" />
</svg>
